<svg width="1186" height="280" viewBox="0 0 1186 280" fill="none" xmlns="http://www.w3.org/2000/svg">
<rect y="1" width="1186" height="279" fill="#0A192F"/>
<path d="M100.528 91.2H118.96C125.872 91.2 131.632 92.352 136.24 94.656C140.944 96.864 144.496 100.08 146.896 104.304C149.392 108.432 150.64 113.328 150.64 118.992C150.736 123.504 149.872 127.632 148.048 131.376C146.32 135.024 143.968 138.096 140.992 140.592C138.016 143.088 134.608 144.96 130.768 146.208C127.024 147.36 123.136 147.744 119.104 147.36C115.072 146.976 111.136 145.68 107.296 143.472V142.032C107.296 142.032 108.016 142.128 109.456 142.32C110.992 142.416 112.912 142.368 115.216 142.176C117.616 141.984 120.064 141.408 122.56 140.448C125.152 139.488 127.552 137.856 129.76 135.552C132.064 133.248 133.792 130.128 134.944 126.192C135.232 125.04 135.472 123.696 135.664 122.16C135.856 120.528 135.904 118.992 135.808 117.552C135.712 111.12 133.984 105.936 130.624 102C127.36 98.064 122.704 96.096 116.656 96.096H101.968C101.968 96.096 101.824 95.712 101.536 94.944C101.344 94.08 101.104 93.264 100.816 92.496C100.624 91.632 100.528 91.2 100.528 91.2ZM102.4 91.2V192H89.008V91.2H102.4ZM89.44 181.488V192H77.92V190.56C77.92 190.56 78.208 190.56 78.784 190.56C79.456 190.56 79.792 190.56 79.792 190.56C82.288 190.56 84.4 189.696 86.128 187.968C87.952 186.144 88.912 183.984 89.008 181.488H89.44ZM89.44 101.712H89.008C89.008 99.216 88.096 97.104 86.272 95.376C84.448 93.552 82.288 92.64 79.792 92.64C79.792 92.64 79.504 92.64 78.928 92.64C78.352 92.64 78.064 92.64 78.064 92.64L77.92 91.2H89.44V101.712ZM101.968 181.488H102.4C102.496 183.984 103.408 186.144 105.136 187.968C106.96 189.696 109.12 190.56 111.616 190.56C111.712 190.56 112.048 190.56 112.624 190.56C113.2 190.56 113.488 190.56 113.488 190.56V192H101.968V181.488ZM180.553 105.6H198.121C202.441 105.6 206.425 106.08 210.073 107.04C213.721 108 216.889 109.488 219.577 111.504C222.265 113.424 224.329 115.872 225.769 118.848C227.305 121.728 228.073 125.136 228.073 129.072C228.073 132.816 227.209 136.416 225.481 139.872C223.753 143.232 221.257 146.064 217.993 148.368C214.729 150.672 210.889 152.112 206.473 152.688C208.489 153.36 210.649 154.896 212.953 157.296C215.257 159.696 217.129 162 218.569 164.208C218.761 164.4 219.433 165.36 220.585 167.088C221.737 168.72 223.177 170.736 224.905 173.136C226.729 175.44 228.553 177.744 230.377 180.048C232.393 182.352 234.169 184.272 235.705 185.808C237.337 187.344 239.065 188.544 240.889 189.408C242.713 190.176 244.825 190.56 247.225 190.56V192H240.313C235.033 192 230.665 191.424 227.209 190.272C223.753 189.12 220.873 187.536 218.569 185.52C216.265 183.504 214.249 181.296 212.521 178.896C211.945 178.224 211.033 176.928 209.785 175.008C208.537 173.088 207.193 171.072 205.753 168.96C204.409 166.752 203.161 164.736 202.009 162.912C200.857 161.088 200.137 159.888 199.849 159.312C198.121 156.624 196.153 154.416 193.945 152.688C191.833 150.864 189.625 149.952 187.321 149.952V148.512C187.321 148.512 187.945 148.56 189.193 148.656C190.441 148.656 192.025 148.608 193.945 148.512C196.441 148.416 198.889 148.176 201.289 147.792C203.785 147.312 206.089 146.16 208.201 144.336C210.313 142.416 211.945 139.44 213.097 135.408C213.385 134.544 213.625 133.488 213.817 132.24C214.009 130.896 214.057 129.456 213.961 127.92C213.769 124.944 213.193 122.4 212.233 120.288C211.273 118.176 209.929 116.448 208.201 115.104C206.569 113.664 204.697 112.608 202.585 111.936C200.569 111.168 198.361 110.736 195.961 110.64C192.409 110.544 189.241 110.544 186.457 110.64C183.769 110.64 182.281 110.592 181.993 110.496C181.993 110.496 181.849 110.112 181.561 109.344C181.369 108.48 181.129 107.664 180.841 106.896C180.649 106.032 180.553 105.6 180.553 105.6ZM182.281 105.6V192H169.177V105.6H182.281ZM169.609 182.784L170.905 192H159.241V190.56C159.337 190.56 159.673 190.56 160.249 190.56C160.825 190.56 161.161 190.56 161.257 190.56C163.465 190.56 165.337 189.792 166.873 188.256C168.409 186.72 169.225 184.896 169.321 182.784H169.609ZM169.609 114.672H169.321C169.225 112.464 168.409 110.64 166.873 109.2C165.337 107.76 163.465 107.04 161.257 107.04C161.161 107.04 160.825 107.04 160.249 107.04C159.673 107.04 159.337 107.04 159.241 107.04V105.6H170.905L169.609 114.672ZM181.849 182.784H182.281C182.281 184.992 183.049 186.864 184.585 188.4C186.217 189.84 188.137 190.56 190.345 190.56C190.345 190.56 190.585 190.56 191.065 190.56C191.641 190.56 191.977 190.56 192.073 190.56L192.217 192H180.409L181.849 182.784ZM288.492 103.008L329.1 191.136H313.404L284.028 120.288L288.492 103.008ZM260.988 181.776C259.932 184.56 260.076 186.72 261.42 188.256C262.764 189.792 264.3 190.56 266.028 190.56H267.18V192H239.244V190.56C239.244 190.56 239.436 190.56 239.82 190.56C240.204 190.56 240.396 190.56 240.396 190.56C242.316 190.56 244.332 189.888 246.444 188.544C248.556 187.2 250.38 184.944 251.916 181.776H260.988ZM288.492 103.008L289.356 115.392L256.956 191.568H247.308L281.292 118.704C281.388 118.512 281.724 117.792 282.3 116.544C282.876 115.2 283.5 113.664 284.172 111.936C284.94 110.208 285.612 108.528 286.188 106.896C286.86 105.264 287.244 103.968 287.34 103.008H288.492ZM304.044 160.176V164.928H266.316V160.176H304.044ZM309.66 181.776H324.924C326.364 184.944 328.14 187.2 330.252 188.544C332.364 189.888 334.38 190.56 336.3 190.56C336.3 190.56 336.492 190.56 336.876 190.56C337.26 190.56 337.452 190.56 337.452 190.56V192H303.612V190.56H304.764C306.396 190.56 307.884 189.792 309.228 188.256C310.572 186.72 310.716 184.56 309.66 181.776ZM432.813 103.584L434.109 114.816L398.685 179.616C398.685 179.616 398.301 180.432 397.533 182.064C396.765 183.6 395.997 185.52 395.229 187.824C394.461 190.032 393.933 192.192 393.645 194.304H392.205L389.037 184.224L432.813 103.584ZM347.133 182.496V192H332.445V190.56C332.445 190.56 332.781 190.56 333.453 190.56C334.125 190.56 334.461 190.56 334.461 190.56C336.957 190.56 339.117 189.888 340.941 188.544C342.765 187.104 343.821 185.088 344.109 182.496H347.133ZM352.029 184.656C351.933 185.904 352.269 187.2 353.037 188.544C353.805 189.888 355.197 190.608 357.213 190.704H359.229V192H350.877L351.165 184.656H352.029ZM355.341 103.584H356.781L360.237 113.952L351.309 192H342.957L355.341 103.584ZM356.781 103.584L397.101 175.152L392.205 194.304L353.757 125.184L356.781 103.584ZM434.109 103.584L447.069 192H432.381L423.741 126.192L432.813 103.584H434.109ZM442.749 182.496H445.629C446.013 185.088 447.117 187.104 448.941 188.544C450.861 189.888 453.021 190.56 455.421 190.56C455.421 190.56 455.757 190.56 456.429 190.56C457.101 190.56 457.437 190.56 457.437 190.56V192H442.749V182.496ZM431.373 184.656H432.381L432.669 192H424.173V190.704H426.333C428.445 190.608 429.837 189.888 430.509 188.544C431.277 187.2 431.565 185.904 431.373 184.656ZM479.938 105.6V160.032C479.938 169.152 482.194 176.352 486.706 181.632C491.314 186.816 497.554 189.408 505.426 189.408C514.066 189.408 520.834 186.96 525.73 182.064C530.626 177.072 533.074 170.256 533.074 161.616V105.6H540.706V161.328C540.706 171.408 537.49 179.376 531.058 185.232C524.722 191.088 515.938 194.016 504.706 194.016C492.706 194.016 483.394 191.136 476.77 185.376C470.242 179.52 466.978 171.552 466.978 161.472V105.6H479.938ZM467.266 105.6V113.232H466.978C466.882 111.408 466.162 109.92 464.818 108.768C463.57 107.616 461.986 107.04 460.066 107.04C460.066 107.04 459.73 107.04 459.058 107.04C458.386 107.04 458.05 107.04 458.05 107.04V105.6H467.266ZM488.866 105.6V107.04C488.866 107.04 488.482 107.04 487.714 107.04C487.042 107.04 486.706 107.04 486.706 107.04C484.882 107.04 483.298 107.616 481.954 108.768C480.61 109.92 479.938 111.408 479.938 113.232H479.65V105.6H488.866ZM533.362 105.6V113.232H533.074C533.074 111.408 532.402 109.92 531.058 108.768C529.714 107.616 528.13 107.04 526.306 107.04C526.306 107.04 525.922 107.04 525.154 107.04C524.482 107.04 524.146 107.04 524.146 107.04V105.6H533.362ZM549.49 105.6V107.04C549.49 107.04 549.154 107.04 548.482 107.04C547.81 107.04 547.474 107.04 547.474 107.04C545.65 107.04 544.066 107.616 542.722 108.768C541.378 109.92 540.706 111.408 540.706 113.232H540.418V105.6H549.49ZM593.254 103.008L633.862 191.136H618.166L588.79 120.288L593.254 103.008ZM565.75 181.776C564.694 184.56 564.838 186.72 566.182 188.256C567.526 189.792 569.062 190.56 570.79 190.56H571.942V192H544.006V190.56C544.006 190.56 544.198 190.56 544.582 190.56C544.966 190.56 545.158 190.56 545.158 190.56C547.078 190.56 549.094 189.888 551.206 188.544C553.318 187.2 555.142 184.944 556.678 181.776H565.75ZM593.254 103.008L594.118 115.392L561.718 191.568H552.07L586.054 118.704C586.15 118.512 586.486 117.792 587.062 116.544C587.638 115.2 588.262 113.664 588.934 111.936C589.702 110.208 590.374 108.528 590.95 106.896C591.622 105.264 592.006 103.968 592.102 103.008H593.254ZM608.806 160.176V164.928H571.078V160.176H608.806ZM614.422 181.776H629.686C631.126 184.944 632.902 187.2 635.014 188.544C637.126 189.888 639.142 190.56 641.062 190.56C641.062 190.56 641.254 190.56 641.638 190.56C642.022 190.56 642.214 190.56 642.214 190.56V192H608.374V190.56H609.526C611.158 190.56 612.646 189.792 613.99 188.256C615.334 186.72 615.478 184.56 614.422 181.776ZM651.463 103.44L732.823 178.32L734.263 194.016L653.047 118.848L651.463 103.44ZM651.895 183.072V192H641.095V190.56C641.095 190.56 641.479 190.56 642.247 190.56C643.111 190.56 643.543 190.56 643.543 190.56C645.751 190.56 647.623 189.84 649.159 188.4C650.695 186.96 651.463 185.184 651.463 183.072H651.895ZM662.407 183.072C662.407 185.184 663.175 186.96 664.711 188.4C666.343 189.84 668.215 190.56 670.327 190.56C670.327 190.56 670.711 190.56 671.479 190.56C672.247 190.56 672.631 190.56 672.631 190.56V192H661.975V183.072H662.407ZM651.463 103.44L662.263 116.112L662.407 192H651.463V121.008C651.463 116.112 651.223 111.984 650.743 108.624C650.359 105.168 650.167 103.44 650.167 103.44H651.463ZM734.263 105.6V176.016C734.263 179.184 734.359 182.16 734.551 184.944C734.743 187.632 734.935 189.84 735.127 191.568C735.415 193.2 735.559 194.016 735.559 194.016H734.263L723.463 181.2V105.6H734.263ZM733.831 114.528V105.6H744.631V107.04C744.631 107.04 744.199 107.04 743.335 107.04C742.567 107.04 742.183 107.04 742.183 107.04C740.071 107.04 738.199 107.76 736.567 109.2C735.031 110.64 734.263 112.416 734.263 114.528H733.831ZM723.463 114.528C723.367 112.416 722.551 110.64 721.015 109.2C719.479 107.76 717.607 107.04 715.399 107.04C715.399 107.04 714.967 107.04 714.103 107.04C713.335 107.04 712.951 107.04 712.951 107.04V105.6H723.751V114.528H723.463ZM838.87 155.712L838.438 176.16C836.134 179.712 833.062 182.832 829.222 185.52C825.478 188.208 821.11 190.32 816.118 191.856C811.222 193.296 805.846 194.016 799.99 194.016C789.91 193.92 781.174 192.048 773.782 188.4C766.486 184.752 760.87 179.616 756.934 172.992C752.998 166.272 751.03 158.208 751.03 148.8C751.03 139.392 752.998 131.328 756.934 124.608C760.87 117.888 766.486 112.704 773.782 109.056C781.174 105.408 789.91 103.584 799.99 103.584C806.134 103.584 812.134 104.304 817.99 105.744C823.942 107.184 829.03 109.152 833.254 111.648L835.414 132.816H834.118C831.91 123.984 827.782 117.696 821.734 113.952C815.782 110.208 808.63 108.336 800.278 108.336C792.982 108.336 786.694 110.016 781.414 113.376C776.23 116.64 772.198 121.296 769.318 127.344C766.534 133.296 765.142 140.4 765.142 148.656C765.142 156.816 766.534 163.92 769.318 169.968C772.198 176.016 776.23 180.672 781.414 183.936C786.598 187.2 792.79 188.928 799.99 189.12C807.094 189.12 813.286 187.968 818.566 185.664C823.942 183.36 828.262 179.76 831.526 174.864C834.886 169.968 836.95 163.584 837.718 155.712H838.87ZM932.505 105.6V192H919.401V105.6H932.505ZM871.305 105.6V192H858.345V105.6H871.305ZM920.841 146.784V151.68H869.865V146.784H920.841ZM858.777 182.784V192H848.409V190.56C848.409 190.56 848.697 190.56 849.273 190.56C849.849 190.56 850.137 190.56 850.137 190.56C852.345 190.56 854.217 189.792 855.753 188.256C857.385 186.72 858.249 184.896 858.345 182.784H858.777ZM871.017 182.784H871.305C871.401 184.896 872.217 186.72 873.753 188.256C875.385 189.792 877.305 190.56 879.513 190.56C879.513 190.56 879.801 190.56 880.377 190.56C880.953 190.56 881.241 190.56 881.241 190.56V192H871.017V182.784ZM871.017 114.816V105.6H881.241V107.04C881.241 107.04 880.953 107.04 880.377 107.04C879.801 107.04 879.513 107.04 879.513 107.04C877.305 107.04 875.385 107.808 873.753 109.344C872.217 110.784 871.401 112.608 871.305 114.816H871.017ZM858.777 114.816H858.345C858.249 112.608 857.385 110.784 855.753 109.344C854.217 107.808 852.345 107.04 850.137 107.04C850.137 107.04 849.849 107.04 849.273 107.04C848.697 107.04 848.409 107.04 848.409 107.04V105.6H858.777V114.816ZM919.833 182.784V192H909.609V190.56C909.609 190.56 909.849 190.56 910.329 190.56C910.905 190.56 911.193 190.56 911.193 190.56C913.497 190.56 915.417 189.792 916.953 188.256C918.489 186.72 919.305 184.896 919.401 182.784H919.833ZM932.073 182.784H932.505C932.601 184.896 933.417 186.72 934.953 188.256C936.489 189.792 938.409 190.56 940.713 190.56C940.713 190.56 940.953 190.56 941.433 190.56C942.009 190.56 942.297 190.56 942.297 190.56V192H932.073V182.784ZM932.073 114.816V105.6H942.297V107.04C942.297 107.04 942.009 107.04 941.433 107.04C940.953 107.04 940.713 107.04 940.713 107.04C938.409 107.04 936.489 107.808 934.953 109.344C933.417 110.784 932.601 112.608 932.505 114.816H932.073ZM919.833 114.816H919.401C919.305 112.608 918.489 110.784 916.953 109.344C915.417 107.808 913.497 107.04 911.193 107.04C911.193 107.04 910.905 107.04 910.329 107.04C909.849 107.04 909.609 107.04 909.609 107.04V105.6H919.833V114.816ZM993.136 103.008L1033.74 191.136H1018.05L988.672 120.288L993.136 103.008ZM965.632 181.776C964.576 184.56 964.72 186.72 966.064 188.256C967.408 189.792 968.944 190.56 970.672 190.56H971.824V192H943.888V190.56C943.888 190.56 944.08 190.56 944.464 190.56C944.848 190.56 945.04 190.56 945.04 190.56C946.96 190.56 948.976 189.888 951.088 188.544C953.2 187.2 955.024 184.944 956.56 181.776H965.632ZM993.136 103.008L994 115.392L961.6 191.568H951.952L985.936 118.704C986.032 118.512 986.368 117.792 986.944 116.544C987.52 115.2 988.144 113.664 988.816 111.936C989.584 110.208 990.256 108.528 990.832 106.896C991.504 105.264 991.888 103.968 991.984 103.008H993.136ZM1008.69 160.176V164.928H970.96V160.176H1008.69ZM1014.3 181.776H1029.57C1031.01 184.944 1032.78 187.2 1034.9 188.544C1037.01 189.888 1039.02 190.56 1040.94 190.56C1040.94 190.56 1041.14 190.56 1041.52 190.56C1041.9 190.56 1042.1 190.56 1042.1 190.56V192H1008.26V190.56H1009.41C1011.04 190.56 1012.53 189.792 1013.87 188.256C1015.22 186.72 1015.36 184.56 1014.3 181.776ZM1067.76 105.6V192H1054.8V105.6H1067.76ZM1055.23 182.784V192H1043.57V190.56C1043.57 190.56 1043.86 190.56 1044.43 190.56C1045.1 190.56 1045.49 190.56 1045.58 190.56C1048.08 190.56 1050.19 189.792 1051.92 188.256C1053.74 186.72 1054.7 184.896 1054.8 182.784H1055.23ZM1067.33 182.784H1067.76C1067.86 184.896 1068.77 186.72 1070.5 188.256C1072.32 189.792 1074.53 190.56 1077.12 190.56C1077.12 190.56 1077.41 190.56 1077.98 190.56C1078.56 190.56 1078.85 190.56 1078.85 190.56L1078.99 192H1067.33V182.784ZM1067.33 114.816V105.6H1078.99L1078.85 107.04C1078.85 107.04 1078.56 107.04 1077.98 107.04C1077.41 107.04 1077.12 107.04 1077.12 107.04C1074.53 107.04 1072.32 107.808 1070.5 109.344C1068.77 110.784 1067.86 112.608 1067.76 114.816H1067.33ZM1055.23 114.816H1054.8C1054.7 112.608 1053.74 110.784 1051.92 109.344C1050.19 107.808 1048.03 107.04 1045.44 107.04C1045.44 107.04 1045.1 107.04 1044.43 107.04C1043.86 107.04 1043.57 107.04 1043.57 107.04V105.6H1055.23V114.816Z" fill="#F8F8FA"/>
<path d="M1112.68 194.65C1108.46 194.65 1104.88 193.275 1101.95 190.525C1099.2 187.592 1097.83 184.017 1097.83 179.8C1097.83 175.583 1099.2 172.1 1101.95 169.35C1104.88 166.417 1108.46 164.95 1112.68 164.95C1116.89 164.95 1120.38 166.417 1123.13 169.35C1126.06 172.1 1127.53 175.583 1127.53 179.8C1127.53 184.017 1126.06 187.592 1123.13 190.525C1120.38 193.275 1116.89 194.65 1112.68 194.65Z" fill="#C5A059"/>
</svg>
